<svg width="2749" height="1527" viewBox="0 0 2749 1527" fill="none" xmlns="http://www.w3.org/2000/svg">
<g filter="url(#filter0_di_2_31)">
<path d="M132.5 1165.5C272.835 1157.63 783.727 812.5 704 620C624.273 427.5 364.5 525.5 273 705.5C181.5 885.5 281.16 1010.71 383 1049C427.991 1065.91 468.363 1077.27 516.474 1077.27C628.727 1077.27 711.447 886.955 783.727 897.281C829.41 903.807 822.948 944.159 822.948 979.98C822.948 1022.32 827.588 1088.72 876.46 1038.96C888.949 1026.25 920.025 981.501 936.508 981.501C960.045 981.501 953.801 1008.91 966.456 1025.28C983.322 1047.11 1010.94 1055.92 1028.48 1032.12C1057.91 992.19 1088.72 970.555 1138.85 970.555C1215.64 970.555 1282.83 1063.53 1363.08 1027.87C1387.56 1016.99 1440.58 974.49 1410.97 946.992C1341.42 882.414 1172.07 1018.15 1272.17 1088.22C1386.93 1168.55 1593.65 1151.16 1720.33 1128.2C1834.37 1107.54 1944.66 1075.09 2060.7 1065.42C2166.21 1056.62 2271.72 1056.19 2377.21 1063.59" stroke="#2563EB" stroke-width="56" stroke-linecap="round" shape-rendering="crispEdges"/>
</g>
<circle cx="805" cy="346" r="25" fill="#3B82F6"/>
<circle cx="1167" cy="425" r="25" fill="#DBEAFE"/>
<g filter="url(#filter1_di_2_31)">
<circle cx="2551" cy="1074" r="37" fill="#DBEAFE"/>
</g>
<path d="M1695.9 678.896C1703.61 686.609 1703.69 699.38 1694.3 704.945C1687.18 709.174 1679.39 712.275 1671.22 714.1C1656.59 717.369 1641.32 716.405 1627.22 711.321C1613.11 706.238 1600.74 697.244 1591.56 685.391C1582.37 673.538 1576.75 659.316 1575.35 644.386C1573.94 629.457 1576.82 614.437 1583.64 601.081C1590.46 587.725 1600.93 576.586 1613.85 568.965C1626.76 561.343 1641.58 557.555 1656.57 558.042C1664.93 558.314 1673.16 559.911 1680.95 562.739C1691.2 566.46 1693.51 579.022 1687.36 588.036V588.036C1681.22 597.05 1668.72 598.758 1657.87 597.69C1657.01 597.605 1656.15 597.549 1655.28 597.521C1647.79 597.277 1640.38 599.172 1633.92 602.982C1627.47 606.793 1622.23 612.363 1618.82 619.04C1615.41 625.718 1613.97 633.228 1614.67 640.693C1615.37 648.158 1618.19 655.269 1622.78 661.196C1627.37 667.122 1633.55 671.619 1640.61 674.161C1647.66 676.703 1655.29 677.184 1662.61 675.55C1663.46 675.361 1664.29 675.145 1665.12 674.902C1675.59 671.831 1688.18 671.183 1695.9 678.896V678.896Z" fill="#2563EB"/>
<path d="M132 538.25C132 549.158 123.024 558.243 112.455 555.544C108.821 554.616 105.249 553.428 101.768 551.986C92.1833 548.016 83.4744 542.197 76.1386 534.861C68.8027 527.526 62.9836 518.817 59.0135 509.232C57.5717 505.751 56.3839 502.179 55.4559 498.545C52.7573 487.976 61.8424 479 72.75 479L76.9885 479C85.5553 479 92.2284 486.201 95.5068 494.116V494.116C97.4918 498.908 100.401 503.263 104.069 506.931C107.737 510.599 112.092 513.508 116.884 515.493V515.493C124.799 518.772 132 525.445 132 534.012L132 538.25Z" fill="#2563EB"/>
<path d="M825.5 1312C814.178 1312 804.748 1302.68 807.549 1291.71C808.512 1287.94 809.745 1284.23 811.242 1280.62C815.363 1270.67 821.403 1261.63 829.017 1254.02C836.632 1246.4 845.671 1240.36 855.62 1236.24C859.233 1234.75 862.94 1233.51 866.713 1232.55C877.683 1229.75 887 1239.18 887 1250.5L887 1254.9C887 1263.79 879.525 1270.72 871.31 1274.12V1274.12C866.336 1276.18 861.816 1279.2 858.009 1283.01C854.201 1286.82 851.181 1291.34 849.121 1296.31V1296.31C845.718 1304.53 838.792 1312 829.899 1312L825.5 1312Z" fill="#1E3A8A"/>
<rect x="879" y="411" width="198" height="39" rx="19.5" fill="#BFDBFE"/>
<rect x="894" y="213.007" width="198" height="39" rx="19.5" transform="rotate(-45 894 213.007)" fill="#60A5FA"/>
<rect x="669" y="299" width="198" height="39" rx="19.5" transform="rotate(-90 669 299)" fill="#BFDBFE"/>
<rect x="1813.09" y="1305" width="198" height="39" rx="19.5" transform="rotate(15 1813.09 1305)" fill="#2563EB"/>
<rect x="2214.51" y="854.112" width="198" height="39" rx="19.5" transform="rotate(-30 2214.51 854.112)" fill="#BFDBFE"/>
<defs>
<filter id="filter0_di_2_31" x="94.4993" y="476.943" width="2314.71" height="724.558" filterUnits="userSpaceOnUse" color-interpolation-filters="sRGB">
<feFlood flood-opacity="0" result="BackgroundImageFix"/>
<feColorMatrix in="SourceAlpha" type="matrix" values="0 0 0 0 0 0 0 0 0 0 0 0 0 0 0 0 0 0 127 0" result="hardAlpha"/>
<feOffset dy="4"/>
<feGaussianBlur stdDeviation="2"/>
<feComposite in2="hardAlpha" operator="out"/>
<feColorMatrix type="matrix" values="0 0 0 0 0.0679514 0 0 0 0 0.212438 0 0 0 0 0.429167 0 0 0 0.25 0"/>
<feBlend mode="normal" in2="BackgroundImageFix" result="effect1_dropShadow_2_31"/>
<feBlend mode="normal" in="SourceGraphic" in2="effect1_dropShadow_2_31" result="shape"/>
<feColorMatrix in="SourceAlpha" type="matrix" values="0 0 0 0 0 0 0 0 0 0 0 0 0 0 0 0 0 0 127 0" result="hardAlpha"/>
<feOffset dx="-10" dy="-10"/>
<feGaussianBlur stdDeviation="15"/>
<feComposite in2="hardAlpha" operator="arithmetic" k2="-1" k3="1"/>
<feColorMatrix type="matrix" values="0 0 0 0 0.6875 0 0 0 0 0.769385 0 0 0 0 1 0 0 0 0.45 0"/>
<feBlend mode="normal" in2="shape" result="effect2_innerShadow_2_31"/>
</filter>
<filter id="filter1_di_2_31" x="2509" y="1032" width="83" height="87" filterUnits="userSpaceOnUse" color-interpolation-filters="sRGB">
<feFlood flood-opacity="0" result="BackgroundImageFix"/>
<feColorMatrix in="SourceAlpha" type="matrix" values="0 0 0 0 0 0 0 0 0 0 0 0 0 0 0 0 0 0 127 0" result="hardAlpha"/>
<feOffset dy="4"/>
<feGaussianBlur stdDeviation="2"/>
<feComposite in2="hardAlpha" operator="out"/>
<feColorMatrix type="matrix" values="0 0 0 0 0.0679514 0 0 0 0 0.212438 0 0 0 0 0.429167 0 0 0 0.25 0"/>
<feBlend mode="normal" in2="BackgroundImageFix" result="effect1_dropShadow_2_31"/>
<feBlend mode="normal" in="SourceGraphic" in2="effect1_dropShadow_2_31" result="shape"/>
<feColorMatrix in="SourceAlpha" type="matrix" values="0 0 0 0 0 0 0 0 0 0 0 0 0 0 0 0 0 0 127 0" result="hardAlpha"/>
<feOffset dx="-5" dy="-5"/>
<feGaussianBlur stdDeviation="9"/>
<feComposite in2="hardAlpha" operator="arithmetic" k2="-1" k3="1"/>
<feColorMatrix type="matrix" values="0 0 0 0 0.168698 0 0 0 0 0.38325 0 0 0 0 0.9875 0 0 0 0.74 0"/>
<feBlend mode="normal" in2="shape" result="effect2_innerShadow_2_31"/>
</filter>
</defs>
</svg>
