<svg width="2603" height="1527" viewBox="0 0 2603 1527" fill="none" xmlns="http://www.w3.org/2000/svg">
<g filter="url(#filter0_di_2_32)">
<path d="M2470.5 1165.5C2330.16 1157.63 1819.27 812.5 1899 620C1978.73 427.5 2238.5 525.5 2330 705.5C2421.5 885.5 2321.84 1010.71 2220 1049C2175.01 1065.91 2134.64 1077.27 2086.53 1077.27C1974.27 1077.27 1891.55 886.955 1819.27 897.281C1773.59 903.807 1780.05 944.159 1780.05 979.98C1780.05 1022.32 1775.41 1088.72 1726.54 1038.96C1714.05 1026.25 1682.98 981.501 1666.49 981.501C1642.95 981.501 1649.2 1008.91 1636.54 1025.28C1619.68 1047.11 1592.06 1055.92 1574.52 1032.12C1545.09 992.19 1514.28 970.555 1464.15 970.555C1387.36 970.555 1320.17 1063.53 1239.92 1027.87C1215.44 1016.99 1162.42 974.49 1192.03 946.992C1261.58 882.414 1430.93 1018.15 1330.83 1088.22C1216.07 1168.55 1009.35 1151.16 882.672 1128.2C768.633 1107.54 658.339 1075.09 542.297 1065.42C436.795 1056.62 331.278 1056.19 225.79 1063.59" stroke="#2563EB" stroke-width="56" stroke-linecap="round" shape-rendering="crispEdges"/>
</g>
<circle cx="25" cy="25" r="25" transform="matrix(-1 0 0 1 1806 429)" fill="#3B82F6"/>
<g filter="url(#filter1_di_2_32)">
<circle cx="37" cy="37" r="37" transform="matrix(-1 0 0 1 89 1037)" fill="#DBEAFE"/>
</g>
<path d="M907.104 678.896C899.391 686.609 899.314 699.38 908.696 704.945C915.824 709.174 923.609 712.275 931.778 714.1C946.413 717.369 961.676 716.405 975.783 711.321C989.89 706.238 1002.26 697.244 1011.44 685.391C1020.63 673.538 1026.25 659.316 1027.65 644.386C1029.06 629.457 1026.18 614.437 1019.36 601.081C1012.54 587.725 1002.07 576.586 989.152 568.965C976.238 561.343 961.421 557.555 946.434 558.042C938.068 558.314 929.842 559.911 922.05 562.739C911.797 566.46 909.495 579.022 915.637 588.036V588.036C921.779 597.05 934.275 598.758 945.13 597.69C945.989 597.605 946.851 597.549 947.717 597.521C955.211 597.277 962.619 599.172 969.076 602.982C975.533 606.793 980.772 612.363 984.181 619.04C987.59 625.718 989.028 633.228 988.327 640.693C987.626 648.158 984.815 655.269 980.222 661.196C975.63 667.122 969.445 671.619 962.392 674.161C955.338 676.703 947.707 677.184 940.389 675.55C939.544 675.361 938.707 675.145 937.879 674.902C927.413 671.831 914.817 671.183 907.104 678.896V678.896Z" fill="#2563EB"/>
<path d="M2419.69 449.375C2410.24 443.921 2397.89 447.153 2394.94 457.655C2391.6 469.537 2391.07 482.128 2393.52 494.412C2397.26 513.21 2407.7 530.007 2422.91 541.675C2438.11 553.342 2457.04 559.084 2476.17 557.831C2488.66 557.012 2500.69 553.242 2511.3 546.945C2520.69 541.381 2520.61 528.609 2512.9 520.896V520.896C2505.18 513.183 2492.59 513.831 2482.12 516.902C2479.36 517.713 2476.5 518.225 2473.58 518.415C2464.02 519.042 2454.56 516.171 2446.95 510.337C2439.35 504.504 2434.13 496.105 2432.26 486.706C2431.69 483.843 2431.44 480.947 2431.51 478.068C2431.77 467.164 2429.13 454.829 2419.69 449.375V449.375Z" fill="#2563EB"/>
<path d="M1777.5 1312C1788.82 1312 1798.25 1302.68 1795.45 1291.71C1794.49 1287.94 1793.25 1284.23 1791.76 1280.62C1787.64 1270.67 1781.6 1261.63 1773.98 1254.02C1766.37 1246.4 1757.33 1240.36 1747.38 1236.24C1743.77 1234.75 1740.06 1233.51 1736.29 1232.55C1725.32 1229.75 1716 1239.18 1716 1250.5L1716 1254.9C1716 1263.79 1723.47 1270.72 1731.69 1274.12V1274.12C1736.66 1276.18 1741.18 1279.2 1744.99 1283.01C1748.8 1286.82 1751.82 1291.34 1753.88 1296.31V1296.31C1757.28 1304.53 1764.21 1312 1773.1 1312L1777.5 1312Z" fill="#1E3A8A"/>
<rect width="198" height="39" rx="19.5" transform="matrix(0.463166 -0.886272 -0.886272 -0.463166 1840.29 383.545)" fill="#BFDBFE"/>
<rect width="198" height="39" rx="19.5" transform="matrix(-0.965926 0.258819 0.258819 0.965926 789.906 1305)" fill="#2563EB"/>
<rect width="198" height="39" rx="19.5" transform="matrix(-0.866025 -0.5 -0.5 0.866025 388.487 854.113)" fill="#BFDBFE"/>
<defs>
<filter id="filter0_di_2_32" x="187.788" y="476.943" width="2314.71" height="724.558" filterUnits="userSpaceOnUse" color-interpolation-filters="sRGB">
<feFlood flood-opacity="0" result="BackgroundImageFix"/>
<feColorMatrix in="SourceAlpha" type="matrix" values="0 0 0 0 0 0 0 0 0 0 0 0 0 0 0 0 0 0 127 0" result="hardAlpha"/>
<feOffset dy="4"/>
<feGaussianBlur stdDeviation="2"/>
<feComposite in2="hardAlpha" operator="out"/>
<feColorMatrix type="matrix" values="0 0 0 0 0.0679514 0 0 0 0 0.212438 0 0 0 0 0.429167 0 0 0 0.25 0"/>
<feBlend mode="normal" in2="BackgroundImageFix" result="effect1_dropShadow_2_32"/>
<feBlend mode="normal" in="SourceGraphic" in2="effect1_dropShadow_2_32" result="shape"/>
<feColorMatrix in="SourceAlpha" type="matrix" values="0 0 0 0 0 0 0 0 0 0 0 0 0 0 0 0 0 0 127 0" result="hardAlpha"/>
<feOffset dx="-10" dy="-10"/>
<feGaussianBlur stdDeviation="15"/>
<feComposite in2="hardAlpha" operator="arithmetic" k2="-1" k3="1"/>
<feColorMatrix type="matrix" values="0 0 0 0 0.6875 0 0 0 0 0.769385 0 0 0 0 1 0 0 0 0.45 0"/>
<feBlend mode="normal" in2="shape" result="effect2_innerShadow_2_32"/>
</filter>
<filter id="filter1_di_2_32" x="10" y="1032" width="83" height="87" filterUnits="userSpaceOnUse" color-interpolation-filters="sRGB">
<feFlood flood-opacity="0" result="BackgroundImageFix"/>
<feColorMatrix in="SourceAlpha" type="matrix" values="0 0 0 0 0 0 0 0 0 0 0 0 0 0 0 0 0 0 127 0" result="hardAlpha"/>
<feOffset dy="4"/>
<feGaussianBlur stdDeviation="2"/>
<feComposite in2="hardAlpha" operator="out"/>
<feColorMatrix type="matrix" values="0 0 0 0 0.0679514 0 0 0 0 0.212438 0 0 0 0 0.429167 0 0 0 0.25 0"/>
<feBlend mode="normal" in2="BackgroundImageFix" result="effect1_dropShadow_2_32"/>
<feBlend mode="normal" in="SourceGraphic" in2="effect1_dropShadow_2_32" result="shape"/>
<feColorMatrix in="SourceAlpha" type="matrix" values="0 0 0 0 0 0 0 0 0 0 0 0 0 0 0 0 0 0 127 0" result="hardAlpha"/>
<feOffset dx="-5" dy="-5"/>
<feGaussianBlur stdDeviation="9"/>
<feComposite in2="hardAlpha" operator="arithmetic" k2="-1" k3="1"/>
<feColorMatrix type="matrix" values="0 0 0 0 0.168698 0 0 0 0 0.38325 0 0 0 0 0.9875 0 0 0 0.74 0"/>
<feBlend mode="normal" in2="shape" result="effect2_innerShadow_2_32"/>
</filter>
</defs>
</svg>
