<svg width="308" height="308" viewBox="0 0 308 308" fill="none" xmlns="http://www.w3.org/2000/svg">
<rect width="308" height="308" rx="90" fill="url(#paint0_linear_1_253)"/>
<g filter="url(#filter0_di_1_253)">
<path d="M70.4939 230C129.61 151.549 146.697 111.674 123.48 88.3413C100.263 65.0087 76.1983 85.5597 65.9513 106.641C52.6461 134.015 51.2836 166.122 70.4939 188.077C81.5894 200.757 100.59 216.381 127.104 211.409C153.618 206.437 180.622 187.303 191.428 160.627C195.29 151.09 192.03 134.925 179.197 130.889C166.364 126.852 149.625 140.556 146.129 168.404C142.634 196.252 162.991 217.342 184.013 198.56C192.109 191.327 199.254 182.977 207.139 175.501C211.421 171.441 223.809 155.163 231.1 157.004C239.221 159.054 212.997 194.839 234.979 181.402C247.787 173.572 264.811 162.914 272 155.913" stroke="white" stroke-width="23.5" stroke-linecap="round" shape-rendering="crispEdges"/>
</g>
<defs>
<filter id="filter0_di_1_253" x="39.2542" y="61.2491" width="248.496" height="188.502" filterUnits="userSpaceOnUse" color-interpolation-filters="sRGB">
<feFlood flood-opacity="0" result="BackgroundImageFix"/>
<feColorMatrix in="SourceAlpha" type="matrix" values="0 0 0 0 0 0 0 0 0 0 0 0 0 0 0 0 0 0 127 0" result="hardAlpha"/>
<feOffset dy="4"/>
<feGaussianBlur stdDeviation="2"/>
<feComposite in2="hardAlpha" operator="out"/>
<feColorMatrix type="matrix" values="0 0 0 0 0.0679514 0 0 0 0 0.212438 0 0 0 0 0.429167 0 0 0 0.25 0"/>
<feBlend mode="normal" in2="BackgroundImageFix" result="effect1_dropShadow_1_253"/>
<feBlend mode="normal" in="SourceGraphic" in2="effect1_dropShadow_1_253" result="shape"/>
<feColorMatrix in="SourceAlpha" type="matrix" values="0 0 0 0 0 0 0 0 0 0 0 0 0 0 0 0 0 0 127 0" result="hardAlpha"/>
<feOffset dx="-5" dy="-5"/>
<feGaussianBlur stdDeviation="9"/>
<feComposite in2="hardAlpha" operator="arithmetic" k2="-1" k3="1"/>
<feColorMatrix type="matrix" values="0 0 0 0 0.168698 0 0 0 0 0.38325 0 0 0 0 0.9875 0 0 0 0.74 0"/>
<feBlend mode="normal" in2="shape" result="effect2_innerShadow_1_253"/>
</filter>
<linearGradient id="paint0_linear_1_253" x1="237.5" y1="0" x2="237.5" y2="308" gradientUnits="userSpaceOnUse">
<stop stop-color="#60A5FA"/>
<stop offset="1" stop-color="#1E40AF"/>
</linearGradient>
</defs>
</svg>
