<svg width="280" height="280" viewBox="0 0 280 280" fill="none" xmlns="http://www.w3.org/2000/svg">
<g filter="url(#filter0_di_2_3)">
<path d="M54.4939 216C113.61 137.549 130.697 97.6739 107.48 74.3413C84.2634 51.0087 60.1983 71.5597 49.9513 92.6413C36.6461 120.015 35.2836 152.122 54.4939 174.077C65.5894 186.757 84.5898 202.381 111.104 197.409C137.618 192.437 164.622 173.303 175.428 146.627C179.29 137.09 176.03 120.925 163.197 116.889C150.364 112.852 133.625 126.556 130.129 154.404C126.634 182.252 146.991 203.342 168.013 184.56C176.109 177.327 183.254 168.977 191.139 161.501C195.421 157.441 207.809 141.163 215.1 143.004C223.221 145.054 196.997 180.839 218.979 167.402C231.787 159.572 248.811 148.914 256 141.913" stroke="#1D4ED8" stroke-width="23.5" stroke-linecap="round" shape-rendering="crispEdges"/>
</g>
<defs>
<filter id="filter0_di_2_3" x="23.2542" y="47.2491" width="248.496" height="188.502" filterUnits="userSpaceOnUse" color-interpolation-filters="sRGB">
<feFlood flood-opacity="0" result="BackgroundImageFix"/>
<feColorMatrix in="SourceAlpha" type="matrix" values="0 0 0 0 0 0 0 0 0 0 0 0 0 0 0 0 0 0 127 0" result="hardAlpha"/>
<feOffset dy="4"/>
<feGaussianBlur stdDeviation="2"/>
<feComposite in2="hardAlpha" operator="out"/>
<feColorMatrix type="matrix" values="0 0 0 0 0.0679514 0 0 0 0 0.212438 0 0 0 0 0.429167 0 0 0 0.25 0"/>
<feBlend mode="normal" in2="BackgroundImageFix" result="effect1_dropShadow_2_3"/>
<feBlend mode="normal" in="SourceGraphic" in2="effect1_dropShadow_2_3" result="shape"/>
<feColorMatrix in="SourceAlpha" type="matrix" values="0 0 0 0 0 0 0 0 0 0 0 0 0 0 0 0 0 0 127 0" result="hardAlpha"/>
<feOffset dx="-5" dy="-5"/>
<feGaussianBlur stdDeviation="9"/>
<feComposite in2="hardAlpha" operator="arithmetic" k2="-1" k3="1"/>
<feColorMatrix type="matrix" values="0 0 0 0 0.6875 0 0 0 0 0.769385 0 0 0 0 1 0 0 0 0.25 0"/>
<feBlend mode="normal" in2="shape" result="effect2_innerShadow_2_3"/>
</filter>
</defs>
</svg>
